<svg xmlns="http://www.w3.org/2000/svg" viewBox="0 0 64 64" width="64" height="64">
  <defs>
    <linearGradient id="bg" x1="0%" y1="0%" x2="100%" y2="100%">
      <stop offset="0%" style="stop-color:#1a1f3a;stop-opacity:1" />
      <stop offset="100%" style="stop-color:#0f1521;stop-opacity:1" />
    </linearGradient>
    <linearGradient id="border" x1="0%" y1="0%" x2="100%" y2="100%">
      <stop offset="0%" style="stop-color:#ff6b35;stop-opacity:0.6" />
      <stop offset="100%" style="stop-color:#4361ee;stop-opacity:0.6" />
    </linearGradient>
  </defs>
  <!-- Rounded square background -->
  <rect width="64" height="64" rx="14" ry="14" fill="url(#bg)"/>
  <!-- Subtle gradient border -->
  <rect width="62" height="62" x="1" y="1" rx="13" ry="13" fill="none" stroke="url(#border)" stroke-width="1.5"/>
  <!-- bi-arrow-repeat icon scaled to fit — original is 16x16, scaled to ~34x34 centered -->
  <g transform="translate(15, 15) scale(2.125)">
    <!-- Top-right arrow head -->
    <path d="M11.534 7h3.932a.25.25 0 0 1 .192.41l-1.966 2.36a.25.25 0 0 1-.384 0l-1.966-2.36a.25.25 0 0 1 .192-.41z" fill="white"/>
    <!-- Bottom-left arrow head -->
    <path d="M.534 9h3.932a.25.25 0 0 0 .192-.41L2.692 6.23a.25.25 0 0 0-.384 0L.342 8.59A.25.25 0 0 0 .534 9z" fill="white"/>
    <!-- Top arc -->
    <path d="M8 3c-1.552 0-2.94.707-3.857 1.818a.5.5 0 1 1-.771-.636A6.002 6.002 0 0 1 13.917 7H12.9A5.002 5.002 0 0 0 8 3z" fill="white"/>
    <!-- Bottom arc -->
    <path d="M3.1 9a5.002 5.002 0 0 0 8.757 2.182.5.5 0 1 1 .771.636A6.002 6.002 0 0 1 2.083 9H3.1z" fill="white"/>
  </g>
</svg>
